<svg xmlns="http://www.w3.org/2000/svg" viewBox="0 0 500 500"><title>body</title><rect width="500" height="500" style="fill:#2eaf80"/><polygon points="0 0 150 83.33 0 166.67 0 0" style="fill:#57ea6f"/><polygon points="0 166.67 150 250 0 333.33 0 166.67" style="fill:#57ea6f"/><polygon points="0 333.33 150 416.67 0 500 0 333.33" style="fill:#57ea6f"/><polygon points="500 0 350 83.33 500 166.67 500 0" style="fill:#57ea6f"/><polygon points="500 166.67 350 250 500 333.33 500 166.67" style="fill:#57ea6f"/><polygon points="500 333.33 350 416.67 500 500 500 333.33" style="fill:#57ea6f"/><circle cx="293" cy="131" r="36" style="fill:#57ea6f"/><circle cx="208" cy="254" r="36" style="fill:#57ea6f"/><circle cx="293" cy="377" r="36" style="fill:#57ea6f"/><path d="M208,464a36,36,0,0,0-36,36h72A36,36,0,0,0,208,464Z" style="fill:#57ea6f"/><path d="M208,36A36,36,0,0,0,244,0H172A36,36,0,0,0,208,36Z" style="fill:#57ea6f"/></svg>