<svg xmlns="http://www.w3.org/2000/svg" viewBox="0 0 500 500"><title>head</title><polygon points="271 0 250 10 229 0 229 53 271 53 271 0" style="fill:#f95d5d"/><polygon points="500 500 0 500 0 250 55 167 198 33 302 33 445 167 500 250 500 500" style="fill:#2eaf80"/><polygon points="0 333.33 150 416.67 0 500 0 333.33" style="fill:#57ea6f"/><polygon points="500 333.33 350 416.67 500 500 500 333.33" style="fill:#57ea6f"/><circle cx="293" cy="377" r="36" style="fill:#57ea6f"/><path d="M208,464a36,36,0,0,0-36,36h72A36,36,0,0,0,208,464Z" style="fill:#57ea6f"/><circle cx="208" cy="254" r="36" style="fill:#57ea6f"/><path d="M389.17,146.24a40,40,0,1,0-57.75-54.77Z"/><path d="M108.44,147.56l57.38-54.42a40,40,0,1,0-57.38,54.42Z"/></svg>